<svg width="25" height="40" viewBox="0 0 25 40" fill="none" xmlns="http://www.w3.org/2000/svg">
<path fillRule="evenodd" clipRule="evenodd" d="M25 27.1429C24.9809 34.2355 19.3956 39.9804 12.5 40C5.60436 39.9804 0.0190752 34.2355 0 27.1429V12.8571C0 5.75634 5.59644 0 12.5 0C19.4036 0 25 5.75634 25 12.8571V27.1429ZM13.9653 30.6643L15.3542 28.5214H15.4236C15.7772 27.997 15.8318 27.3184 15.5671 26.7413C15.3023 26.1642 14.7583 25.7762 14.14 25.7234C13.5217 25.6707 12.923 25.9613 12.5694 26.4857C12.2159 25.9613 11.6172 25.6707 10.9989 25.7234C10.3806 25.7762 9.83658 26.1642 9.57181 26.7413C9.30705 27.3184 9.36173 27.997 9.71528 28.5214L11.1042 30.6643C11.4281 31.1488 11.9631 31.4382 12.5347 31.4382C13.1064 31.4382 13.6414 31.1488 13.9653 30.6643ZM9.65567 4.92072C9.59184 4.87505 9.51025 4.86463 9.4375 4.89286C5.72277 6.41259 3.58067 10.4316 4.33286 14.4701C5.08505 18.5087 8.51958 21.4288 12.5174 21.4288C16.5151 21.4288 19.9497 18.5087 20.7019 14.4701C21.4541 10.4316 19.312 6.41259 15.5972 4.89286C15.5245 4.86463 15.4429 4.87505 15.3791 4.92072C15.3152 4.96639 15.2773 5.04146 15.2778 5.12143C15.274 6.22832 14.4025 7.12465 13.3264 7.12857H11.7083C10.6322 7.12465 9.76075 6.22832 9.75694 5.12143C9.75737 5.04146 9.7195 4.96639 9.65567 4.92072ZM8.33681 12.9253C8.25692 12.9253 8.18245 12.9668 8.13889 13.0357H8.13194C7.96223 13.2396 7.69575 13.3283 7.44207 13.2656C7.18839 13.2028 6.99032 12.9991 6.9293 12.7382C6.86828 12.4772 6.9546 12.2031 7.15278 12.0286C7.81318 11.3791 8.85349 11.3791 9.51389 12.0286C9.71207 12.2031 9.79839 12.4772 9.73737 12.7382C9.67635 12.9991 9.47828 13.2028 9.2246 13.2656C8.97092 13.3283 8.70444 13.2396 8.53472 13.0357C8.49116 12.9668 8.41669 12.9253 8.33681 12.9253ZM9.91667 16.75C11.3472 18.2147 13.6597 18.2147 15.0903 16.75C15.2885 16.5754 15.3748 16.3013 15.3138 16.0404C15.2527 15.7795 15.0547 15.5758 14.801 15.513C14.5473 15.4502 14.2808 15.539 14.1111 15.7429C13.2247 16.6529 11.7892 16.6529 10.9028 15.7429C10.6272 15.5002 10.2165 15.5165 9.96003 15.7803C9.70352 16.0441 9.68766 16.4666 9.92361 16.75H9.91667ZM16.6701 12.9253C16.5903 12.9253 16.5158 12.9668 16.4722 13.0357H16.4653C16.2956 13.2396 16.0291 13.3283 15.7754 13.2656C15.5217 13.2028 15.3237 12.9991 15.2626 12.7382C15.2016 12.4772 15.2879 12.2031 15.4861 12.0286C16.1465 11.3791 17.1868 11.3791 17.8472 12.0286C18.0454 12.2031 18.1317 12.4772 18.0707 12.7382C18.0097 12.9991 17.8116 13.2028 17.5579 13.2656C17.3042 13.3283 17.0378 13.2396 16.8681 13.0357C16.8245 12.9668 16.75 12.9253 16.6701 12.9253Z" fill="#657786"/>
</svg>
