<svg width="40" height="39" viewBox="0 0 40 39" fill="none" xmlns="http://www.w3.org/2000/svg">
<path fillRule="evenodd" clipRule="evenodd" d="M38.0731 17.4307C37.6379 17.3331 37.1846 17.3588 36.7629 17.5051C35.9617 14.5333 34.2791 11.8822 31.9425 9.91021C31.6797 8.48016 31.9896 7.00296 32.8038 5.80473C33.0198 5.4401 33.0089 4.98201 32.7758 4.62832C32.5427 4.27464 32.1293 4.08876 31.714 4.15096C28.9589 4.51065 27.3793 5.80473 26.4936 6.98717C25.4589 6.69175 24.3955 6.51152 23.3222 6.4497C23.3032 6.44787 23.2841 6.44787 23.2651 6.4497C25.2121 11.901 23.4659 18.0023 18.9421 21.5533C14.4184 25.1043 8.14989 25.2945 3.42446 22.0241C3.40633 22.07 3.39798 22.1193 3.39997 22.1688C3.58407 26.201 5.36436 29.988 8.33869 32.6743C9.36204 33.5739 9.95631 34.8741 9.97133 36.2465V38.016C9.97133 38.5595 10.4062 39 10.9427 39H16.8488C17.3853 39 17.8202 38.5595 17.8202 38.016V36.4904H18.2284H22.5141V38.0077C22.5141 38.5512 22.949 38.9917 23.4855 38.9917H29.412C29.9485 38.9917 30.3834 38.5512 30.3834 38.0077V36.6599C30.3734 35.2341 30.9787 33.875 32.0405 32.9389C34.3416 30.9617 35.9932 28.321 36.7751 25.3688C37.1974 25.5125 37.6504 25.5368 38.0853 25.4391C39.2253 25.1524 40.019 24.1067 39.9996 22.9171V19.9651C40.0204 18.7683 39.2207 17.7163 38.0731 17.4307ZM30.8038 17.6912C30.2111 17.6912 29.6768 17.3296 29.45 16.7749C29.2232 16.2203 29.3486 15.5819 29.7677 15.1574C30.1867 14.7329 30.817 14.6059 31.3645 14.8357C31.9121 15.0654 32.2691 15.6066 32.2691 16.2069C32.2712 16.602 32.1178 16.9817 31.8428 17.2618C31.5678 17.542 31.1938 17.6995 30.8038 17.6995V17.6912ZM10.8489 21.9786C16.84 21.9786 21.697 17.0594 21.6977 10.9907C21.6985 4.92199 16.8427 0.00152233 10.8516 3.53159e-07C4.86046 -0.00152162 0.002254 4.91648 0 10.9852C0.00449861 17.0532 4.85841 21.9717 10.8489 21.9786ZM9.94684 5.38302V4.55613C9.94684 4.24299 10.1118 3.95363 10.3795 3.79706C10.6472 3.64049 10.9771 3.64049 11.2448 3.79706C11.5125 3.95363 11.6774 4.24299 11.6774 4.55613V5.25485C12.2285 5.27279 12.776 5.35182 13.3101 5.49051C13.8026 5.62774 14.1201 6.11155 14.0543 6.62469C13.9886 7.13784 13.5597 7.5235 13.0489 7.52878C12.9535 7.52878 12.8586 7.51486 12.7672 7.48744C12.2599 7.33486 11.7332 7.25825 11.204 7.26004C10.057 7.26004 9.68562 7.76031 9.68562 8.26057C9.68562 8.8518 10.306 9.22803 11.804 9.79858C13.906 10.551 14.755 11.535 14.755 13.1475C14.755 14.7599 13.6407 16.0994 11.608 16.455V17.4307C11.608 17.9148 11.2206 18.3072 10.7428 18.3072C10.2649 18.3072 9.87745 17.9148 9.87745 17.4307V16.6038C9.15501 16.5619 8.44128 16.4229 7.75503 16.1904C7.24216 16.022 6.94594 15.4797 7.07748 14.9501L7.09789 14.8632C7.21954 14.4226 7.61766 14.1193 8.06931 14.1232C8.1846 14.1236 8.29905 14.1431 8.40808 14.1811C9.02265 14.3964 9.66796 14.5082 10.3183 14.5118C11.3264 14.5118 12.0162 14.0984 12.0162 13.4038C12.0162 12.7092 11.4489 12.2958 10.1428 11.8451C8.25298 11.2001 6.9632 10.3071 6.9632 8.57066C6.9632 6.99544 8.05706 5.75925 9.94684 5.38302Z" fill="#657786"/>
</svg>
